# xmcd
#
# Track frame offsets:
#	150
#	14667
#	34182
#	54082
#	68525
#	82745
#	101950
#	116545
#	133112
#	151515
#	169837
#
# Disc length: 2452
#
# Revision: 3
# Processed by: cddbd v1.5.1PL0 Copyright (c) Steve Scherf et al.
# Submitted via: DiscPlay 4.0.3
# Normalized: r1:DSETVAR1;r2:TSWAP
#
DISCID=8009920b
DTITLE=Various Artist - Country Focus July '97
DYEAR=1900
DGENRE=
TTITLE0=Terri Clark - Just The Same
TTITLE1=Toby keith - We Were In Love
TTITLE2=Billy Ray Cyrus - It's All the Same To Me
TTITLE3=Sammy Kershaw - Fit To Be Tied Down
TTITLE4=Kathy Mattea - I'm On Your Side
TTITLE5=Jamie Warren - Rainman
TTITLE6=Kim Richey - I Know
TTITLE7=Steve Kolander - My Love
TTITLE8=William Topley - The Ring
TTITLE9=Crystal Bernard - You're Gonna Miss A Whole Lotta  Love
TTITLE10=John and Audrey Wiggins - Crazy Love
EXTD=
EXTT0=
EXTT1=
EXTT2=
EXTT3=
EXTT4=
EXTT5=
EXTT6=
EXTT7=
EXTT8=
EXTT9=
EXTT10=
PLAYORDER=
